<?xml version="1.0"?>
<svg xmlns="http://www.w3.org/2000/svg" id="Layer_5" enable-background="new 0 0 64 64" height="512px" viewBox="0 0 64 64" width="512px" class=""><g><g><path d="m61.568 40.234-10.837-10.063c1.431-2.395 2.269-5.184 2.269-8.171 0-8.822-7.178-16-16-16-2.122 0-4.145.424-6 1.178v-3.178c0-1.654-1.346-3-3-3h-24c-1.654 0-3 1.346-3 3v16c0 1.654 1.346 3 3 3h5.586l5.211 5.212c-5.965 1.539-9.797 4.405-9.797 7.788v18c0 5.047 8.785 9 20 9s20-3.953 20-9v-18c0-.056-.008-.104-.011-.158.062-.036.121-.074.182-.111l10.066 10.84c.844.908 2.039 1.429 3.282 1.429 2.47 0 4.481-2.011 4.481-4.482 0-1.242-.521-2.438-1.432-3.284zm-10.568-18.234c0 7.72-6.28 14-14 14s-14-6.28-14-14 6.28-14 14-14 14 6.28 14 14zm-25.582 11.007c2.358 2.48 5.496 4.197 9.021 4.768-2.398.703-5.585 1.225-9.439 1.225-7.512 0-11.948-1.911-13.508-3 1.56-1.089 5.996-3 13.508-3 .143 0 .28.004.418.007zm-.418-21.554c-.761.865-1.438 1.804-2 2.819v-5.272h2zm-21 9.547c-.552 0-1-.449-1-1v-16c0-.551.448-1 1-1h24c.552 0 1 .449 1 1v4.165c-.701.407-1.371.86-2 1.365v-2.53h-6v10h-2v-12h-6v12h-2v-8h-6v10h16.292c-.124.653-.199 1.322-.241 2h-4.051v5.586c0 .338-.469.531-.707.293l-5.879-5.879zm13-4h-2v-10h2zm-8-6v6h-2v-6zm10 15.586v-3.586h2.051c.089 1.432.361 2.812.804 4.118-1.038.07-2.043.173-3.014.307.098-.262.159-.543.159-.839zm3.67 2.488c.335.676.705 1.331 1.128 1.949-8.163.228-13.502 2.725-14.589 4.442l-.338.535.339.535c1.14 1.8 6.946 4.465 15.79 4.465 7.014 0 11.985-1.628 14.394-3.199 1.196-.181 2.349-.488 3.444-.919-1.234 3.646-9.947 6.118-17.838 6.118-8.514 0-18-2.875-18-7 0-2.985 5.978-6.42 15.67-6.926zm2.33 31.926c-8.514 0-18-2.875-18-7v-2.036c3.206 3.004 9.97 5.036 18 5.036s14.794-2.032 18-5.036v2.036c0 4.125-9.486 7-18 7zm0-6c-8.514 0-18-2.875-18-7v-2.036c3.206 3.004 9.97 5.036 18 5.036s14.794-2.032 18-5.036v2.036c0 4.125-9.486 7-18 7zm0-6c-8.514 0-18-2.875-18-7v-2.036c3.206 3.004 9.97 5.036 18 5.036s14.794-2.032 18-5.036v2.036c0 4.125-9.486 7-18 7zm33.519-3c-.688 0-1.35-.288-1.816-.79l-9.863-10.62c1.024-.802 1.947-1.725 2.749-2.749l10.618 9.858c.504.468.793 1.132.793 1.819 0 1.369-1.113 2.482-2.481 2.482z" data-original="#000000" class="active-path" data-old_color="#000000" fill="#646464"/><path d="m37 34c6.617 0 12-5.383 12-12s-5.383-12-12-12-12 5.383-12 12 5.383 12 12 12zm0-22c5.514 0 10 4.486 10 10s-4.486 10-10 10-10-4.486-10-10 4.486-10 10-10z" data-original="#000000" class="active-path" data-old_color="#000000" fill="#646464"/><path d="m43 22h2c0-4.411-3.589-8-8-8v2c3.309 0 6 2.691 6 6z" data-original="#000000" class="active-path" data-old_color="#000000" fill="#646464"/></g></g> </svg>
