<svg xmlns="http://www.w3.org/2000/svg" viewBox="0 0 399 376" width="256" height="241">
	<style>
		tspan { white-space:pre }
		.shp0 { fill: #2e4453 } 
		.shp1 { fill: none;stroke: #ffffff;stroke-width: 5 } 
		.shp2 { fill: none;stroke: #ffffff;stroke-width: 26 } 
		.shp3 { fill: #ef8122 } 
		.shp4 { fill: #efb747 } 
		.shp5 { fill: #0087be } 
		.shp6 { fill: #4ab765 } 
	</style>
	<g id="Layer_2">
		<g id="Layer_1-2">
			<path id="Shape 1" class="shp0" d="M0 0L399 0L399 376L0 376L0 0Z" />
			<path id="Layer" class="shp1" d="M69.82 327C59.97 327 52 319.03 52 309.18C52 299.32 59.97 291.35 69.82 291.35C79.68 291.35 87.65 299.32 87.65 309.18C87.65 319.03 79.68 327 69.82 327Z" />
			<g id="layer1">
				<path id="rect849" class="shp2" d="M69.81 292.42L69.81 51L346 51L346 318.96L205.6 318.96" />
				<path id="path1181" class="shp2" d="M206.64 319.15C182.37 317.14 159.82 305.83 143.71 287.57C127.59 269.32 119.15 245.55 120.16 221.22C121.17 196.89 131.55 173.9 149.12 157.05C166.69 140.19 190.1 130.78 214.45 130.79L214.45 130.79C224.86 130.79 235.19 132.51 245.04 135.89C254.89 139.26 264.1 144.24 272.32 150.63C280.54 157.01 287.65 164.72 293.36 173.42C299.06 182.13 303.29 191.72 305.86 201.8" />
			</g>
			<path id="Layer" class="shp3" d="M71.22 308.39L84.04 308.39C83.93 306.74 83.53 305.12 82.84 303.62C82.16 302.11 81.21 300.74 80.04 299.57C78.87 298.4 77.5 297.45 75.99 296.76C74.49 296.07 72.87 295.67 71.22 295.55L71.22 308.39Z" />
			<path id="Layer" class="shp4" d="M80.46 318.71C80.99 318.14 81.47 317.52 81.89 316.87C82.32 316.21 82.68 315.52 82.99 314.81C83.3 314.09 83.55 313.35 83.73 312.59C83.91 311.83 84.03 311.06 84.08 310.28L72.05 310.28L80.46 318.71Z" />
			<path id="Layer" class="shp5" d="M69.31 308.95L69.31 295.55C66.74 295.73 64.28 296.61 62.19 298.11C60.1 299.61 58.47 301.67 57.49 304.04C56.5 306.42 56.2 309.02 56.62 311.56C57.04 314.1 58.16 316.47 59.85 318.41L69.31 308.95Z" />
			<path id="Layer" class="shp6" d="M70.02 310.97L61.2 319.76C62.42 320.83 63.82 321.67 65.33 322.25C66.84 322.83 68.45 323.14 70.07 323.16C71.69 323.18 73.3 322.92 74.83 322.39C76.36 321.85 77.78 321.05 79.03 320.02L70.02 310.97Z" />
		</g>
	</g>
</svg>