<svg xmlns="http://www.w3.org/2000/svg" viewBox="0 0 382 281.83" width="50" height="50">
    <defs>
        <style>.cls-1{fill:#00a651;}.cls-2{fill:#00aadc;}.cls-3{fill:#005182;}</style>
    </defs>
    <g id="Layer_2" data-name="Layer 2">
        <g id="Layer_1-2" data-name="Layer 1">
            <path class="cls-1" d="M130.1,261.73a3.34,3.34,0,0,1-.37-.41l.41.41Z"/>
            <path class="cls-2"
                  d="M76.56,142.45a26.53,26.53,0,0,1,18.79,7.81l86.22,86.22a26.51,26.51,0,0,0,37.55,0l-37.55,37.58a26.56,26.56,0,0,1-37.54,0L57.77,187.8a26.58,26.58,0,0,1,18.79-45.35Z"/>
            <path class="cls-3"
                  d="M267.79,150.26a26.46,26.46,0,0,1,0,37.54l-48.67,48.68a26.51,26.51,0,0,1-37.55,0l-18.79-18.79,18.79-18.76,48.68-48.67A26.5,26.5,0,0,1,267.79,150.26Z"/>
            <rect class="cls-3" x="-16.1" y="55.8" width="160.31" height="50.33" rx="25.17"
                  transform="translate(-38.49 69) rotate(-45)"/>
            <path class="cls-2" d="M7.65,101.77v5.38a25.17,25.17,0,1,0,50.33,0V51.44Z"/>
            <path class="cls-1" d="M251.9,20.1a2.74,2.74,0,0,1,.37.41l-.41-.41Z"/>
            <path class="cls-2"
                  d="M305.44,139.38a26.53,26.53,0,0,1-18.79-7.81L200.43,45.35a26.51,26.51,0,0,0-37.55,0L200.43,7.77a26.57,26.57,0,0,1,37.55,0L324.24,94a26.59,26.59,0,0,1-18.8,45.36Z"/>
            <path class="cls-3"
                  d="M114.21,131.57a26.47,26.47,0,0,1,0-37.55l48.67-48.67a26.51,26.51,0,0,1,37.55,0l18.79,18.79L200.43,82.9l-48.67,48.67A26.51,26.51,0,0,1,114.21,131.57Z"/>
            <rect class="cls-3" x="237.8" y="175.69" width="160.31" height="50.33" rx="25.17"
                  transform="translate(-48.9 283.66) rotate(-45)"/>
            <path class="cls-2" d="M374.35,180.06v-5.38a25.17,25.17,0,1,0-50.33,0v55.71Z"/>
        </g>
    </g>
</svg>