<svg xmlns="http://www.w3.org/2000/svg" viewBox="0 0 399 376" width="100" height="94">
	<style>
		tspan { white-space:pre }
		.shp0 { fill: none;stroke: #2e4453;stroke-width: 5 } 
		.shp1 { fill: none;stroke: #2e4453;stroke-width: 26 } 
		.shp2 { fill: #ef8122 } 
		.shp3 { fill: #efb747 } 
		.shp4 { fill: #0087be } 
		.shp5 { fill: #4ab765 } 
	</style>
	<g id="Layer_2">
		<g id="Layer_1-2">
			<path id="Layer" class="shp0" d="M93.55 301.31C85.5 301.31 79 294.8 79 286.76C79 278.71 85.5 272.21 93.55 272.21C101.6 272.21 108.1 278.71 108.1 286.76C108.1 294.8 101.6 301.31 93.55 301.31Z" />
			<g id="layer1">
				<path id="rect849" class="shp1" d="M93.54 273.08L93.54 76L319 76L319 294.74L204.39 294.74" />
				<path id="path1181" class="shp1" d="M205.23 294.9C185.43 293.26 167.02 284.02 153.86 269.12C140.71 254.23 133.82 234.81 134.64 214.96C135.47 195.1 143.93 176.32 158.28 162.57C172.63 148.81 191.73 141.13 211.61 141.13L211.61 141.13C220.11 141.13 228.54 142.54 236.58 145.3C244.62 148.05 252.14 152.12 258.86 157.33C265.57 162.54 271.37 168.83 276.03 175.94C280.68 183.05 284.13 190.87 286.23 199.1" />
			</g>
			<path id="Layer" class="shp2" d="M94.69 286.12L105.16 286.12C105.07 284.77 104.73 283.45 104.18 282.22C103.62 280.99 102.84 279.87 101.89 278.91C100.93 277.96 99.81 277.18 98.59 276.62C97.36 276.06 96.03 275.73 94.69 275.63L94.69 286.12Z" />
			<path id="Layer" class="shp3" d="M102.23 294.54C102.66 294.07 103.06 293.57 103.4 293.03C103.74 292.5 104.05 291.94 104.3 291.35C104.55 290.77 104.75 290.16 104.9 289.54C105.05 288.92 105.15 288.3 105.19 287.66L95.37 287.66L102.23 294.54Z" />
			<path id="Layer" class="shp4" d="M93.13 286.57L93.13 275.63C91.03 275.78 89.02 276.5 87.32 277.73C85.61 278.95 84.28 280.62 83.48 282.56C82.67 284.5 82.43 286.63 82.77 288.7C83.11 290.77 84.03 292.71 85.41 294.29L93.13 286.57Z" />
			<path id="Layer" class="shp5" d="M93.71 288.22L86.51 295.4C87.5 296.27 88.65 296.96 89.88 297.43C91.12 297.9 92.42 298.15 93.75 298.17C95.07 298.19 96.39 297.98 97.64 297.54C98.88 297.11 100.05 296.45 101.07 295.61L93.71 288.22Z" />
		</g>
	</g>
</svg>